<?xml version="1.0" encoding="utf-8"?>
<!-- Generator: Adobe Illustrator 26.0.1, SVG Export Plug-In . SVG Version: 6.00 Build 0)  -->
<svg version="1.1" id="Layer_1" xmlns="http://www.w3.org/2000/svg" xmlns:xlink="http://www.w3.org/1999/xlink" x="0px" y="0px"
	 viewBox="0 0 27.3 27.3" style="enable-background:new 0 0 27.3 27.3;" xml:space="preserve">
<style type="text/css">
	.st0{fill:url(#Path_4286_00000131368198711577917310000009072056981762932368_);}
	.st1{fill:url(#Path_4287_00000024720473689232940370000013761505618943445679_);}
	.st2{fill:url(#Path_4288_00000021082593556118822590000011092963225525660347_);}
	.st3{fill:url(#Path_4289_00000131347581063203736950000001167506439891006899_);}
	.st4{fill:url(#Path_4290_00000031205158723666858610000017906849640817521041_);}
	.st5{fill:url(#Path_4291_00000049202199854997515290000014673696314360476580_);}
	.st6{fill:url(#Path_4292_00000104669792575317023360000015295566764064689536_);}
	.st7{fill:url(#Path_4293_00000076586901076339819280000006598859184442078089_);}
	.st8{fill:#FFFFFF;}
	.st9{fill:#3B5998;}
	.st10{fill:#55ACEE;}
	.st11{fill:#F1F2F2;}
	.st12{fill:#D42428;}
	.st13{fill:#CC202D;}
	.st14{fill:#BA202E;}
	.st15{fill:#0E76A8;}
</style>
<g id="facebook_8_" transform="translate(33.054 0)">
	<path id="Path_4284" class="st9" d="M-19.4,0c7.5,0,13.6,6.1,13.6,13.6s-6.1,13.6-13.6,13.6s-13.6-6.1-13.6-13.6c0,0,0,0,0,0
		C-33.1,6.1-26.9,0-19.4,0z"/>
	<path id="Path_4285" class="st8" d="M-17.8,9.4h1.8V6.8h-2.1v0c-2.5,0.1-3,1.5-3.1,3h0v1.3h-1.7v2.5h1.7v6.8h2.6v-6.8h2.1l0.4-2.5
		h-2.5v-0.8C-18.6,9.8-18.2,9.4-17.8,9.4C-17.8,9.4-17.8,9.4-17.8,9.4z"/>
</g>
</svg>
