<?xml version="1.0" encoding="utf-8"?>
<!-- Generator: Adobe Illustrator 26.0.1, SVG Export Plug-In . SVG Version: 6.00 Build 0)  -->
<svg version="1.1" id="Layer_1" xmlns="http://www.w3.org/2000/svg" xmlns:xlink="http://www.w3.org/1999/xlink" x="0px" y="0px"
	 viewBox="0 0 27.3 27.3" style="enable-background:new 0 0 27.3 27.3;" xml:space="preserve">
<style type="text/css">
	.st0{fill:url(#Path_4286_00000078027921313936797950000018010824428974816912_);}
	.st1{fill:url(#Path_4287_00000112616741469367334200000009148505114470050193_);}
	.st2{fill:url(#Path_4288_00000029744485453582100050000008855712253325142952_);}
	.st3{fill:url(#Path_4289_00000131333965603093127470000001435951789996243339_);}
	.st4{fill:url(#Path_4290_00000172402774656652687680000011437461753403648945_);}
	.st5{fill:url(#Path_4291_00000177453622696391510860000016910023070975302580_);}
	.st6{fill:url(#Path_4292_00000130623565795449994090000017621003395434415027_);}
	.st7{fill:url(#Path_4293_00000150811127807128496030000009664177083689960836_);}
	.st8{fill:#FFFFFF;}
	.st9{fill:#3B5998;}
	.st10{fill:#55ACEE;}
	.st11{fill:#F1F2F2;}
	.st12{fill:#D42428;}
	.st13{fill:#CC202D;}
	.st14{fill:#BA202E;}
	.st15{fill:#0E76A8;}
</style>
<g id="instagram_5_" transform="translate(0 0.13)">
	
		<radialGradient id="Path_4286_00000096030188327291786230000000220135016746927279_" cx="-215.5857" cy="395.9012" r="1.103" gradientTransform="matrix(27.2832 0 0 -27.283 5887.4717 10825.1084)" gradientUnits="userSpaceOnUse">
		<stop  offset="0" style="stop-color:#FAE100"/>
		<stop  offset="5.400000e-02" style="stop-color:#FADC04"/>
		<stop  offset="0.117" style="stop-color:#FBCE0E"/>
		<stop  offset="0.183" style="stop-color:#FCB720"/>
		<stop  offset="0.251" style="stop-color:#FE9838"/>
		<stop  offset="0.305" style="stop-color:#FF7950"/>
		<stop  offset="0.492" style="stop-color:#FF1C74"/>
		<stop  offset="1" style="stop-color:#6C1CD1"/>
	</radialGradient>
	<path id="Path_4286" style="fill:url(#Path_4286_00000096030188327291786230000000220135016746927279_);" d="M26.8,4.7
		c-0.2-2.3-2.1-4.2-4.4-4.4c-5.8-0.6-11.7-0.6-17.5,0C2.6,0.6,0.7,2.4,0.5,4.7c-0.6,5.8-0.6,11.7,0,17.5c0.2,2.3,2.1,4.2,4.4,4.4
		c5.8,0.6,11.7,0.6,17.5,0c2.3-0.2,4.2-2.1,4.4-4.4C27.4,16.4,27.4,10.6,26.8,4.7L26.8,4.7z"/>
	
		<linearGradient id="Path_4287_00000003089323421044297920000014798217039621172140_" gradientUnits="userSpaceOnUse" x1="-214.3797" y1="394.5763" x2="-216.2887" y2="395.6503" gradientTransform="matrix(24.2103 0 0 -24.2098 5200.6597 9564.3496)">
		<stop  offset="0" style="stop-color:#A1B5D8;stop-opacity:0"/>
		<stop  offset="0.309" style="stop-color:#90A2BD;stop-opacity:0.31"/>
		<stop  offset="0.755" style="stop-color:#7C8B9C;stop-opacity:0.757"/>
		<stop  offset="1" style="stop-color:#748290"/>
	</linearGradient>
	<path id="Path_4287" style="fill:url(#Path_4287_00000003089323421044297920000014798217039621172140_);" d="M25.3,5.7
		c-0.2-2.1-1.9-3.7-3.9-3.9C16.2,1.3,11,1.3,5.9,1.8C3.8,2,2.2,3.7,2,5.7c-0.6,5.2-0.6,10.4,0,15.5c0.2,2.1,1.9,3.7,3.9,3.9
		c5.2,0.6,10.4,0.6,15.5,0c2.1-0.2,3.7-1.9,3.9-3.9C25.9,16.1,25.9,10.9,25.3,5.7z"/>
	
		<linearGradient id="Path_4288_00000171720434169686609460000000367520880830477488_" gradientUnits="userSpaceOnUse" x1="-215.0369" y1="340.3687" x2="-215.0369" y2="339.5887" gradientTransform="matrix(26.465 0 0 -5.4461 5704.5913 1877.6354)">
		<stop  offset="0" style="stop-color:#FAE100;stop-opacity:0"/>
		<stop  offset="0.307" style="stop-color:#FCA800;stop-opacity:0.306"/>
		<stop  offset="0.627" style="stop-color:#FE7300;stop-opacity:0.627"/>
		<stop  offset="0.868" style="stop-color:#FF5200;stop-opacity:0.867"/>
		<stop  offset="1" style="stop-color:#FF4500"/>
	</linearGradient>
	<path id="Path_4288" style="fill:url(#Path_4288_00000171720434169686609460000000367520880830477488_);" d="M0.4,21.7
		c0,0.2,0,0.4,0.1,0.6c0.2,2.3,2.1,4.2,4.4,4.4c5.8,0.6,11.7,0.6,17.5,0c2.3-0.2,4.2-2.1,4.4-4.4c0-0.2,0-0.4,0.1-0.6H0.4z"/>
	
		<linearGradient id="Path_4289_00000067211369056587195390000004117574152161138090_" gradientUnits="userSpaceOnUse" x1="-213.6011" y1="393.1853" x2="-213.9051" y2="393.4913" gradientTransform="matrix(22.2146 0 0 -22.0948 4757.1567 8699.2578)">
		<stop  offset="0" style="stop-color:#833AB4;stop-opacity:0"/>
		<stop  offset="1" style="stop-color:#833AB4"/>
	</linearGradient>
	<path id="Path_4289" style="fill:url(#Path_4289_00000067211369056587195390000004117574152161138090_);" d="M26.8,22.3
		c0.3-3.1,0.5-6.3,0.5-9.4L21,6.6c-0.8-0.9-2-1.5-3.3-1.5C15,5,12.3,5,9.5,5.1c-2.2,0-4,1.7-4.3,3.9c-0.1,0.4-0.1,0.8-0.2,1.2v6.6
		c0,0.2,0.1,0.4,0.1,0.6c0.1,1.3,0.6,2.5,1.6,3.3l6.3,6.3c3.1,0,6.2-0.1,9.3-0.5C24.7,26.4,26.6,24.6,26.8,22.3L26.8,22.3z"/>
	
		<linearGradient id="Path_4290_00000062915180560696890240000012806518349626152126_" gradientUnits="userSpaceOnUse" x1="-212.5211" y1="391.2957" x2="-212.6851" y2="392.0697" gradientTransform="matrix(20.5555 0 0 -20.531 4387.1836 8058.5171)">
		<stop  offset="0" style="stop-color:#833AB4;stop-opacity:0"/>
		<stop  offset="1" style="stop-color:#833AB4"/>
	</linearGradient>
	<path id="Path_4290" style="fill:url(#Path_4290_00000062915180560696890240000012806518349626152126_);" d="M26.8,22.3
		c-0.2,2.3-2.1,4.2-4.4,4.4c-3.1,0.3-6.2,0.5-9.3,0.5l-6.3-6.3c0.8,0.7,1.8,1.1,2.8,1.1c2.8,0.1,5.5,0.1,8.3,0c2.4,0,4.4-2,4.4-4.4
		c0.1-2.6,0.1-5.3,0-7.9c0-1.1-0.4-2.1-1.1-2.9l6.2,6.2C27.3,16,27.1,19.1,26.8,22.3L26.8,22.3z"/>
	
		<linearGradient id="Path_4291_00000110448167544891551640000010230695972148619176_" gradientUnits="userSpaceOnUse" x1="-210.7309" y1="388.5944" x2="-211.4959" y2="389.3594" gradientTransform="matrix(17.6865 0 0 -17.6875 3747.0828 6893.1299)">
		<stop  offset="0" style="stop-color:#833AB4;stop-opacity:0"/>
		<stop  offset="1" style="stop-color:#833AB4"/>
	</linearGradient>
	<path id="Path_4291" style="fill:url(#Path_4291_00000110448167544891551640000010230695972148619176_);" d="M16.9,10.6
		c-1.6-1.8-4.4-1.9-6.2-0.2c-1.8,1.6-1.9,4.4-0.2,6.2c0.1,0.1,0.2,0.2,0.2,0.2l10.1,10.1c0.5,0,1.1-0.1,1.6-0.2
		c2.3-0.2,4.2-2.1,4.4-4.4c0.1-0.5,0.1-1.1,0.2-1.6L16.9,10.6z"/>
	
		<linearGradient id="Path_4292_00000117665039487855649390000012613460237198495162_" gradientUnits="userSpaceOnUse" x1="-201.2386" y1="376.7389" x2="-201.6866" y2="377.1339" gradientTransform="matrix(10.0061 0 0 -11.3161 2034.5931 4274.8687)">
		<stop  offset="0" style="stop-color:#833AB4;stop-opacity:0"/>
		<stop  offset="1" style="stop-color:#833AB4"/>
	</linearGradient>
	<path id="Path_4292" style="fill:url(#Path_4292_00000117665039487855649390000012613460237198495162_);" d="M27.2,16.5l-8.1-8.1
		c-0.3-0.5-1-0.6-1.5-0.2c-0.5,0.3-0.6,1-0.2,1.5c0.1,0.1,0.1,0.1,0.2,0.2l9.4,9.4C27.1,18.3,27.2,17.4,27.2,16.5z"/>
	
		<linearGradient id="Path_4293_00000088099591608291022830000009309346319113135768_" gradientUnits="userSpaceOnUse" x1="-210.123" y1="388.0281" x2="-210.767" y2="387.3751" gradientTransform="matrix(17.149 0 0 -16.9108 3622.4583 6569.9868)">
		<stop  offset="0" style="stop-color:#833AB4"/>
		<stop  offset="9.200000e-02" style="stop-color:#9C3495"/>
		<stop  offset="0.293" style="stop-color:#DC2546"/>
		<stop  offset="0.392" style="stop-color:#FD1D1D"/>
		<stop  offset="0.559" style="stop-color:#FC6831"/>
		<stop  offset="0.689" style="stop-color:#FC9B40"/>
		<stop  offset="0.752" style="stop-color:#FCAF45"/>
		<stop  offset="0.781" style="stop-color:#FDB750"/>
		<stop  offset="0.866" style="stop-color:#FECB6A"/>
		<stop  offset="0.942" style="stop-color:#FFD87A"/>
		<stop  offset="1" style="stop-color:#FFDC80"/>
	</linearGradient>
	<path id="Path_4293" style="fill:url(#Path_4293_00000088099591608291022830000009309346319113135768_);" d="M5.1,10.2
		C5.1,9.8,5.2,9.4,5.2,9c0.3-2.2,2.1-3.8,4.3-3.9C12.3,5,15,5,17.8,5.1c2.4,0,4.4,2,4.4,4.4c0.1,2.6,0.1,5.3,0,7.9
		c0,2.4-1.9,4.4-4.4,4.4c-2.8,0.1-5.5,0.1-8.3,0c-2.4-0.1-4.3-2-4.4-4.4c0-0.2-0.1-0.4-0.1-0.6L5.1,10.2L5.1,10.2z M13.6,20.4
		c1.3,0,2.5,0,3.8,0c1.7,0.1,3.1-1.2,3.2-2.9c0-0.1,0-0.2,0-0.3c0.1-2.5,0.1-4.9,0-7.4c0.1-1.7-1.2-3.1-2.9-3.2c-0.1,0-0.2,0-0.4,0
		c-2.5-0.1-5-0.1-7.5,0C8.2,6.5,6.8,7.8,6.7,9.4c0,0.1,0,0.2,0,0.3c-0.1,2.5-0.1,5,0,7.5c-0.1,1.7,1.2,3.1,2.9,3.2
		c0.1,0,0.2,0,0.3,0C11.2,20.5,12.4,20.4,13.6,20.4L13.6,20.4z"/>
	<g id="Group_8871" transform="translate(5.067 5.186)">
		<path id="Path_4294" class="st8" d="M0,5c0.1-0.4,0.1-0.8,0.2-1.2C0.4,1.6,2.3,0,4.5-0.1c2.8-0.1,5.5-0.1,8.3,0
			c2.4,0,4.4,2,4.4,4.4c0.1,2.6,0.1,5.3,0,7.9c0,2.4-1.9,4.4-4.4,4.4c-2.8,0.1-5.5,0.1-8.3,0c-2.4-0.1-4.3-2-4.4-4.4
			c0-0.2-0.1-0.4-0.1-0.6L0,5L0,5z M8.6,15.2c1.3,0,2.5,0,3.8,0c1.7,0.1,3.1-1.2,3.2-2.9c0-0.1,0-0.2,0-0.3c0.1-2.5,0.1-4.9,0-7.4
			c0.1-1.7-1.2-3.1-2.9-3.2c-0.1,0-0.2,0-0.4,0c-2.5-0.1-5-0.1-7.5,0C3.2,1.3,1.7,2.6,1.6,4.3c0,0.1,0,0.2,0,0.3
			c-0.1,2.5-0.1,5,0,7.5c-0.1,1.7,1.2,3.1,2.9,3.2c0.1,0,0.2,0,0.3,0C6.1,15.3,7.3,15.2,8.6,15.2L8.6,15.2z"/>
		<path id="Path_4295" class="st8" d="M8.6,4c-2.4,0-4.4,2-4.4,4.4c0,2.4,2,4.4,4.4,4.4c2.4,0,4.4-2,4.4-4.4c0,0,0,0,0,0
			C12.9,5.9,11,4,8.6,4z M8.6,11.2c-1.6,0-2.9-1.3-2.9-2.9S7,5.5,8.6,5.5c1.6,0,2.9,1.3,2.9,2.9C11.4,9.9,10.2,11.2,8.6,11.2
			L8.6,11.2z"/>
		<path id="Path_4296" class="st8" d="M14.2,3.8c0,0.6-0.5,1-1,1c-0.6,0-1-0.5-1-1c0-0.6,0.5-1,1-1c0,0,0,0,0,0
			C13.8,2.7,14.2,3.2,14.2,3.8z"/>
	</g>
</g>
</svg>
