<?xml version="1.0" encoding="utf-8"?>
<!-- Generator: Adobe Illustrator 26.0.1, SVG Export Plug-In . SVG Version: 6.00 Build 0)  -->
<svg version="1.1" id="Layer_1" xmlns="http://www.w3.org/2000/svg" xmlns:xlink="http://www.w3.org/1999/xlink" x="0px" y="0px"
	 viewBox="0 0 27.3 27.3" style="enable-background:new 0 0 27.3 27.3;" xml:space="preserve">
<style type="text/css">
	.st0{fill:url(#Path_4286_00000009584699798484986010000011368840783964077710_);}
	.st1{fill:url(#Path_4287_00000049905218411609476870000004964735744188464781_);}
	.st2{fill:url(#Path_4288_00000021078604143513103300000002434920565492716191_);}
	.st3{fill:url(#Path_4289_00000145060150020958113820000004512730908024590482_);}
	.st4{fill:url(#Path_4290_00000173873889157676064160000015171860558965342876_);}
	.st5{fill:url(#Path_4291_00000176033508111324602030000012565006754366230709_);}
	.st6{fill:url(#Path_4292_00000134222767850584352530000004556410830654843836_);}
	.st7{fill:url(#Path_4293_00000179639345572737145870000005875450752923277202_);}
	.st8{fill:#FFFFFF;}
	.st9{fill:#3B5998;}
	.st10{fill:#55ACEE;}
	.st11{fill:#F1F2F2;}
	.st12{fill:#D42428;}
	.st13{fill:#CC202D;}
	.st14{fill:#BA202E;}
	.st15{fill:#0E76A8;}
</style>
<g id="linkedin_4_" transform="translate(1317.717 1354.891)">
	<path id="Path_4297" class="st15" d="M-1304.1-1354.9c7.5,0,13.6,6.1,13.6,13.6c0,7.5-6.1,13.6-13.6,13.6
		c-7.5,0-13.6-6.1-13.6-13.6c0,0,0,0,0,0C-1317.7-1348.8-1311.6-1354.9-1304.1-1354.9z"/>
	<path id="Path_4298" class="st8" d="M-1310-1336.1h2.6v-8.5h-2.6V-1336.1z M-1300.1-1345c-1.2,0-2.4,0.5-3.1,1.5v-1.2h-2.6v8.5h2.6
		v-4.6c0.1-1.1,0.9-1.9,2-1.9c1.1,0,1.4,1,1.4,1.9v4.6h2.6v-4.8C-1297.2-1344.3-1298.8-1345-1300.1-1345z M-1308.8-1345.5
		c0.7,0,1.3-0.6,1.3-1.3c0-0.7-0.6-1.3-1.3-1.3c-0.7,0-1.3,0.6-1.3,1.3l0,0C-1310-1346.1-1309.5-1345.5-1308.8-1345.5
		L-1308.8-1345.5z"/>
</g>
</svg>
