<?xml version="1.0" encoding="utf-8"?>
<!-- Generator: Adobe Illustrator 26.0.1, SVG Export Plug-In . SVG Version: 6.00 Build 0)  -->
<svg version="1.1" id="Layer_1" xmlns="http://www.w3.org/2000/svg" xmlns:xlink="http://www.w3.org/1999/xlink" x="0px" y="0px"
	 viewBox="0 0 27.3 27.3" style="enable-background:new 0 0 27.3 27.3;" xml:space="preserve">
<style type="text/css">
	.st0{fill:url(#Path_4286_00000149383754254386834950000002414753105602137247_);}
	.st1{fill:url(#Path_4287_00000097494749009927847240000005207571900048367768_);}
	.st2{fill:url(#Path_4288_00000031903349670628999030000011694672929920599699_);}
	.st3{fill:url(#Path_4289_00000013193585657173149900000005407277221127008412_);}
	.st4{fill:url(#Path_4290_00000168079561666655807990000009436860969779806369_);}
	.st5{fill:url(#Path_4291_00000006676272596961456070000016718405582951430052_);}
	.st6{fill:url(#Path_4292_00000166639645404025023800000006935165084396623014_);}
	.st7{fill:url(#Path_4293_00000090995986351911103580000013039854192982781584_);}
	.st8{fill:#FFFFFF;}
	.st9{fill:#3B5998;}
	.st10{fill:#55ACEE;}
	.st11{fill:#F1F2F2;}
	.st12{fill:#D42428;}
	.st13{fill:#CC202D;}
	.st14{fill:#BA202E;}
	.st15{fill:#0E76A8;}
</style>
<g id="twitter_3_" transform="translate(66.108 0)">
	<circle id="Ellipse_7756" class="st10" cx="-52.5" cy="13.6" r="13.6"/>
	<g id="Group_8872" transform="translate(6.104 8.275)">
		<path id="Path_4299" class="st11" d="M-50.2,1.5C-50.8,1.8-51.4,2-52.1,2c0.7-0.4,1.2-1,1.4-1.8C-51.3,0.6-52,0.9-52.7,1
			C-54-0.3-56-0.3-57.3,0.9c-0.8,0.8-1.2,2-0.9,3.1c-2.6-0.1-5.1-1.4-6.7-3.4C-65.9,2.1-65.4,4-64,5c-0.5,0-1-0.2-1.5-0.4
			c0,0,0,0,0,0c0,1.6,1.1,2.9,2.6,3.2c-0.5,0.1-1,0.1-1.5,0.1c0.4,1.3,1.7,2.2,3,2.3c-1.4,1.1-3.1,1.6-4.8,1.3
			c4.3,2.8,10,1.5,12.8-2.8c1-1.5,1.5-3.2,1.5-5c0-0.1,0-0.3,0-0.4C-51.2,2.8-50.6,2.2-50.2,1.5z"/>
	</g>
</g>
</svg>
