<?xml version="1.0" encoding="utf-8"?>
<!-- Generator: Adobe Illustrator 26.0.1, SVG Export Plug-In . SVG Version: 6.00 Build 0)  -->
<svg version="1.1" id="Layer_1" xmlns="http://www.w3.org/2000/svg" xmlns:xlink="http://www.w3.org/1999/xlink" x="0px" y="0px"
	 viewBox="0 0 27.3 27.3" style="enable-background:new 0 0 27.3 27.3;" xml:space="preserve">
<style type="text/css">
	.st0{fill:url(#Path_4286_00000005963052623296176030000014489077399014357901_);}
	.st1{fill:url(#Path_4287_00000136392466874876873590000018403868273148432000_);}
	.st2{fill:url(#Path_4288_00000063622820263718663910000004195911601559842199_);}
	.st3{fill:url(#Path_4289_00000013886440926511563400000004950555523904446614_);}
	.st4{fill:url(#Path_4290_00000164513172951794465650000013056970412331080632_);}
	.st5{fill:url(#Path_4291_00000011018044962539305880000006734884383630198701_);}
	.st6{fill:url(#Path_4292_00000085948833458272439140000014622479706220410777_);}
	.st7{fill:url(#Path_4293_00000158716142129904509190000002891248172777052831_);}
	.st8{fill:#FFFFFF;}
	.st9{fill:#3B5998;}
	.st10{fill:#55ACEE;}
	.st11{fill:#F1F2F2;}
	.st12{fill:#D42428;}
	.st13{fill:#CC202D;}
	.st14{fill:#BA202E;}
	.st15{fill:#0E76A8;}
</style>
<g id="youtube_1_" transform="translate(99.162 0)">
	<circle id="Ellipse_7757" class="st12" cx="-85.5" cy="13.6" r="13.6"/>
	<path id="Path_4300" class="st13" d="M-75.9,4c5.3,5.3,5.3,14,0,19.3s-14,5.3-19.3,0L-75.9,4z"/>
	<path id="Path_4301" class="st14" d="M-72.2,16.4l-6.8-6.8l-8,0.9l-4.8,7.5l9,9C-77.4,25.9-73.2,21.7-72.2,16.4z"/>
	<path id="Path_4302" class="st8" d="M-78.4,11c0-1.1-0.9-2.1-2.1-2.1h-9.7c-1.1,0-2.1,0.9-2.1,2.1v5.6c0,1.1,0.9,2.1,2.1,2.1h9.7
		c1.1,0,2.1-0.9,2.1-2.1L-78.4,11L-78.4,11z M-86.7,16.1v-5.2l4,2.6L-86.7,16.1z"/>
</g>
</svg>
