<svg id="instagram_5_" data-name="instagram (5)" xmlns="http://www.w3.org/2000/svg" xmlns:xlink="http://www.w3.org/1999/xlink" width="27.283" height="27.283" viewBox="0 0 27.283 27.283">
  <defs>
    <radialGradient id="radial-gradient" cx="0.205" cy="0.874" r="1.103" gradientTransform="translate(0)" gradientUnits="objectBoundingBox">
      <stop offset="0" stop-color="#fae100"/>
      <stop offset="0.054" stop-color="#fadc04"/>
      <stop offset="0.117" stop-color="#fbce0e"/>
      <stop offset="0.183" stop-color="#fcb720"/>
      <stop offset="0.251" stop-color="#fe9838"/>
      <stop offset="0.305" stop-color="#ff7950"/>
      <stop offset="0.492" stop-color="#ff1c74"/>
      <stop offset="1" stop-color="#6c1cd1"/>
    </radialGradient>
    <linearGradient id="linear-gradient" x1="0.369" y1="0.426" x2="-1.54" y2="-0.648" gradientUnits="objectBoundingBox">
      <stop offset="0" stop-color="#a1b5d8" stop-opacity="0"/>
      <stop offset="0.309" stop-color="#90a2bd" stop-opacity="0.31"/>
      <stop offset="0.755" stop-color="#7c8b9c" stop-opacity="0.757"/>
      <stop offset="1" stop-color="#748290"/>
    </linearGradient>
    <linearGradient id="linear-gradient-2" x1="0.5" y1="0.413" x2="0.5" y2="1.193" gradientUnits="objectBoundingBox">
      <stop offset="0" stop-color="#fae100" stop-opacity="0"/>
      <stop offset="0.307" stop-color="#fca800" stop-opacity="0.306"/>
      <stop offset="0.627" stop-color="#fe7300" stop-opacity="0.627"/>
      <stop offset="0.868" stop-color="#ff5200" stop-opacity="0.867"/>
      <stop offset="1" stop-color="#ff4500"/>
    </linearGradient>
    <linearGradient id="linear-gradient-3" x1="0.316" y1="0.311" x2="0.012" y2="0.005" gradientUnits="objectBoundingBox">
      <stop offset="0" stop-color="#833ab4" stop-opacity="0"/>
      <stop offset="1" stop-color="#833ab4"/>
    </linearGradient>
    <linearGradient id="linear-gradient-4" x1="0.582" y1="0.887" x2="0.418" y2="0.113" xlink:href="#linear-gradient-3"/>
    <linearGradient id="linear-gradient-5" x1="0.605" y1="0.605" x2="-0.16" y2="-0.16" xlink:href="#linear-gradient-3"/>
    <linearGradient id="linear-gradient-6" x1="0.376" y1="0.332" x2="-0.072" y2="-0.063" xlink:href="#linear-gradient-3"/>
    <linearGradient id="linear-gradient-7" x1="0.816" y1="0.182" x2="0.172" y2="0.835" gradientUnits="objectBoundingBox">
      <stop offset="0" stop-color="#833ab4"/>
      <stop offset="0.092" stop-color="#9c3495"/>
      <stop offset="0.293" stop-color="#dc2546"/>
      <stop offset="0.392" stop-color="#fd1d1d"/>
      <stop offset="0.559" stop-color="#fc6831"/>
      <stop offset="0.689" stop-color="#fc9b40"/>
      <stop offset="0.752" stop-color="#fcaf45"/>
      <stop offset="0.781" stop-color="#fdb750"/>
      <stop offset="0.866" stop-color="#fecb6a"/>
      <stop offset="0.942" stop-color="#ffd87a"/>
      <stop offset="1" stop-color="#ffdc80"/>
    </linearGradient>
  </defs>
  <path id="Path_4286" data-name="Path 4286" d="M26.816,4.88A4.967,4.967,0,0,0,22.4.467,82.4,82.4,0,0,0,4.88.467,4.968,4.968,0,0,0,.467,4.88a82.4,82.4,0,0,0,0,17.523,4.968,4.968,0,0,0,4.413,4.413,82.407,82.407,0,0,0,17.523,0A4.968,4.968,0,0,0,26.816,22.4a82.4,82.4,0,0,0,0-17.523Zm0,0" transform="translate(0.001 0)" fill="url(#radial-gradient)"/>
  <path id="Path_4287" data-name="Path 4287" d="M52.63,33.165a4.408,4.408,0,0,0-3.916-3.916,73.153,73.153,0,0,0-15.55,0,4.409,4.409,0,0,0-3.916,3.916,73.15,73.15,0,0,0,0,15.549,4.408,4.408,0,0,0,3.916,3.916,73.123,73.123,0,0,0,15.549,0,4.408,4.408,0,0,0,3.916-3.916A73.124,73.124,0,0,0,52.63,33.165Zm0,0" transform="translate(-27.297 -27.298)" fill="url(#linear-gradient)"/>
  <path id="Path_4288" data-name="Path 4288" d="M7.672,409.8q.028.283.058.566a4.968,4.968,0,0,0,4.413,4.413,82.4,82.4,0,0,0,17.523,0,4.968,4.968,0,0,0,4.413-4.413q.03-.283.058-.566Zm0,0" transform="translate(-7.263 -387.968)" fill="url(#linear-gradient-2)"/>
  <path id="Path_4289" data-name="Path 4289" d="M116.839,114.535a82.475,82.475,0,0,0,.464-9.416l-6.236-6.236a4.467,4.467,0,0,0-3.254-1.493c-2.75-.1-5.509-.094-8.259,0a4.413,4.413,0,0,0-4.291,3.871c-.072.4-.116.8-.172,1.2v6.616c.031.214.078.428.092.643a4.809,4.809,0,0,0,1.559,3.344l6.346,6.346a82.481,82.481,0,0,0,9.339-.465,4.968,4.968,0,0,0,4.413-4.413Zm0,0" transform="translate(-90.023 -92.132)" fill="url(#linear-gradient-3)"/>
  <path id="Path_4290" data-name="Path 4290" d="M146.342,142.414a4.968,4.968,0,0,1-4.413,4.413,82.52,82.52,0,0,1-9.339.465l-6.337-6.337a4.443,4.443,0,0,0,2.8,1.076c2.75.1,5.509.1,8.259,0a4.419,4.419,0,0,0,4.364-4.418c.083-2.641.083-5.288,0-7.929a4.6,4.6,0,0,0-1.106-2.921L146.806,133a82.63,82.63,0,0,1-.464,9.416Zm0,0" transform="translate(-119.526 -120.011)" fill="url(#linear-gradient-4)"/>
  <path id="Path_4291" data-name="Path 4291" d="M181.581,175.408a4.369,4.369,0,1,0-6.174,6.174l10.111,10.111q.8-.07,1.605-.156a4.968,4.968,0,0,0,4.413-4.413q.086-.8.155-1.605Zm0,0" transform="translate(-164.721 -164.721)" fill="url(#linear-gradient-5)"/>
  <path id="Path_4292" data-name="Path 4292" d="M333.289,159.29l-8.137-8.137a1.039,1.039,0,1,0-1.455,1.455l9.447,9.447Q333.239,160.673,333.289,159.29Zm0,0" transform="translate(-306.058 -142.709)" fill="url(#linear-gradient-6)"/>
  <path id="Path_4293" data-name="Path 4293" d="M95.09,102.464c.057-.4.1-.8.172-1.2a4.413,4.413,0,0,1,4.291-3.871c2.75-.094,5.509-.1,8.259,0a4.42,4.42,0,0,1,4.364,4.417q.124,3.961,0,7.929a4.419,4.419,0,0,1-4.364,4.417c-2.75.1-5.509.1-8.259,0a4.5,4.5,0,0,1-4.372-4.429c-.014-.215-.061-.429-.092-.643v-6.615Zm8.577,10.216c1.258,0,2.518.038,3.775-.009a3.071,3.071,0,0,0,3.229-3.218q.086-3.68,0-7.363a3.051,3.051,0,0,0-3.229-3.214q-3.75-.079-7.5,0a3.033,3.033,0,0,0-3.223,3.167q-.1,3.726,0,7.457a3.053,3.053,0,0,0,3.224,3.171c1.241.046,2.485.009,3.728.009Zm0,0" transform="translate(-90.023 -92.131)" fill="url(#linear-gradient-7)"/>
  <g id="Group_8871" data-name="Group 8871" transform="translate(5.067 5.186)">
    <path id="Path_4294" data-name="Path 4294" d="M95.09,102.464c.057-.4.1-.8.172-1.2a4.413,4.413,0,0,1,4.291-3.871c2.75-.094,5.509-.1,8.259,0a4.42,4.42,0,0,1,4.364,4.417q.124,3.961,0,7.929a4.419,4.419,0,0,1-4.364,4.417c-2.75.1-5.509.1-8.259,0a4.5,4.5,0,0,1-4.372-4.429c-.014-.215-.061-.429-.092-.643v-6.615Zm8.577,10.216c1.258,0,2.518.038,3.775-.009a3.071,3.071,0,0,0,3.229-3.218q.086-3.68,0-7.363a3.051,3.051,0,0,0-3.229-3.214q-3.75-.079-7.5,0a3.033,3.033,0,0,0-3.223,3.167q-.1,3.726,0,7.457a3.053,3.053,0,0,0,3.224,3.171c1.241.046,2.485.009,3.728.009Zm0,0" transform="translate(-95.09 -97.317)" fill="#fff"/>
    <path id="Path_4295" data-name="Path 4295" d="M178.362,174a4.37,4.37,0,1,0,4.37,4.37A4.37,4.37,0,0,0,178.362,174Zm0,7.235a2.865,2.865,0,1,1,2.865-2.865A2.865,2.865,0,0,1,178.362,181.231Zm0,0" transform="translate(-169.788 -169.91)" fill="#fff"/>
    <path id="Path_4296" data-name="Path 4296" d="M325.365,151.782a1.04,1.04,0,1,1-1.039-1.04A1.04,1.04,0,0,1,325.365,151.782Zm0,0" transform="translate(-311.126 -147.895)" fill="#fff"/>
  </g>
</svg>
