<svg id="linkedin_4_" data-name="linkedin (4)" xmlns="http://www.w3.org/2000/svg" width="27.283" height="27.283" viewBox="0 0 27.283 27.283">
  <path id="Path_4297" data-name="Path 4297" d="M13.642,0A13.642,13.642,0,1,1,0,13.642,13.642,13.642,0,0,1,13.642,0Z" fill="#0e76a8"/>
  <path id="Path_4298" data-name="Path 4298" d="M81.947,84.753H84.5V76.239H81.947ZM91.9,75.944A3.834,3.834,0,0,0,88.762,77.4V76.211H86.2v8.542h2.564V80.133A2.028,2.028,0,0,1,90.777,78.2c1.12,0,1.4.952,1.4,1.9v4.642h2.554V79.919C94.728,76.563,93.139,75.944,91.9,75.944Zm-8.686-.556a1.279,1.279,0,1,0-1.279-1.279A1.279,1.279,0,0,0,83.212,75.388Z" transform="translate(-74.26 -66.009)" fill="#fff"/>
</svg>
