<svg id="twitter_3_" data-name="twitter (3)" xmlns="http://www.w3.org/2000/svg" width="27.283" height="27.283" viewBox="0 0 27.283 27.283">
  <circle id="Ellipse_7756" data-name="Ellipse 7756" cx="13.642" cy="13.642" r="13.642" transform="translate(0 0)" fill="#55acee"/>
  <g id="Group_8872" data-name="Group 8872" transform="translate(6.104 8.275)">
    <path id="Path_4299" data-name="Path 4299" d="M41,35.557a6.506,6.506,0,0,1-1.873.513,3.27,3.27,0,0,0,1.434-1.8,6.528,6.528,0,0,1-2.071.791,3.263,3.263,0,0,0-5.557,2.975,9.256,9.256,0,0,1-6.721-3.407,3.264,3.264,0,0,0,1.009,4.354,3.238,3.238,0,0,1-1.477-.408c0,.014,0,.028,0,.041a3.263,3.263,0,0,0,2.616,3.2,3.273,3.273,0,0,1-1.472.056,3.264,3.264,0,0,0,3.046,2.264,6.582,6.582,0,0,1-4.827,1.35,9.273,9.273,0,0,0,14.276-7.813c0-.141,0-.282-.009-.422A6.612,6.612,0,0,0,41,35.557Z" transform="translate(-25.103 -34.028)" fill="#f1f2f2"/>
  </g>
</svg>
