<svg id="youtube_1_" data-name="youtube (1)" xmlns="http://www.w3.org/2000/svg" width="27.283" height="27.283" viewBox="0 0 27.283 27.283">
  <circle id="Ellipse_7757" data-name="Ellipse 7757" cx="13.642" cy="13.642" r="13.642" transform="translate(0 0)" fill="#d42428"/>
  <path id="Path_4300" data-name="Path 4300" d="M88.669,69.38A13.642,13.642,0,1,1,69.376,88.673Z" transform="translate(-65.382 -65.386)" fill="#cc202d"/>
  <path id="Path_4301" data-name="Path 4301" d="M149.426,173.9l-6.752-6.751-7.963.907-4.817,7.457,9,9A13.657,13.657,0,0,0,149.426,173.9Z" transform="translate(-122.417 -157.526)" fill="#ba202e"/>
  <path id="Path_4302" data-name="Path 4302" d="M134.279,157.342a2.07,2.07,0,0,0-2.069-2.07H122.5a2.07,2.07,0,0,0-2.069,2.07v5.552a2.07,2.07,0,0,0,2.069,2.07h9.709a2.07,2.07,0,0,0,2.069-2.07v-5.552Zm-8.309,5.118v-5.215l3.955,2.607Z" transform="translate(-113.499 -146.333)" fill="#fff"/>
</svg>
